# xmcd
#
# Track frame offsets:
#	150
#	19739
#	47743
#	64623
#	84463
#	98701
#	118944
#	137903
#	160011
#	188035
#	205685
#	241381
#
# Disc length: 3825 seconds
#
# Revision: 1
# Processed by: cddbd v1.5.2PL0 Copyright (c) Steve Scherf et al.
# Submitted via: audiograbber 1.83.01
#
DISCID=9b0eef0c
DTITLE=Principato,Tom - In the clouds
DYEAR=2006
DGENRE=Blues
TTITLE0=The road to hell
TTITLE1=In the clouds
TTITLE2=Knockin' on the door
TTITLE3=In another dream
TTITLE4=Come on home
TTITLE5=Livin' here too
TTITLE6=The hunter
TTITLE7=(It must have been some kinda) Voodoo thing
TTITLE8=In a dream
TTITLE9=I'm gone
TTITLE10=Return of the voodoo child
TTITLE11=Drivin' South
EXTD=
EXTT0=
EXTT1=
EXTT2=
EXTT3=
EXTT4=
EXTT5=
EXTT6=
EXTT7=
EXTT8=
EXTT9=
EXTT10=
EXTT11=
PLAYORDER=
